<?xml version="1.0" encoding="UTF-8" standalone="no"?>
<!-- Created with Inkscape (http://www.inkscape.org/) -->

<svg
   xmlns:dc="http://purl.org/dc/elements/1.1/"
   xmlns:cc="http://creativecommons.org/ns#"
   xmlns:rdf="http://www.w3.org/1999/02/22-rdf-syntax-ns#"
   xmlns:svg="http://www.w3.org/2000/svg"
   xmlns="http://www.w3.org/2000/svg"
   xmlns:sodipodi="http://sodipodi.sourceforge.net/DTD/sodipodi-0.dtd"
   xmlns:inkscape="http://www.inkscape.org/namespaces/inkscape"
   width="23.118814mm"
   height="23.118814mm"
   viewBox="0 0 23.118814 23.118814"
   version="1.1"
   id="svg8"
   inkscape:version="0.92.2 2405546, 2018-03-11"
   sodipodi:docname="emacsOnline.svg">
  <defs
     id="defs2" />
  <sodipodi:namedview
     id="base"
     pagecolor="#ffffff"
     bordercolor="#666666"
     borderopacity="1.0"
     inkscape:pageopacity="0.0"
     inkscape:pageshadow="2"
     inkscape:zoom="7.9195959"
     inkscape:cx="66.645297"
     inkscape:cy="48.009391"
     inkscape:document-units="mm"
     inkscape:current-layer="layer1"
     showgrid="false"
     inkscape:window-width="1887"
     inkscape:window-height="1052"
     inkscape:window-x="33"
     inkscape:window-y="0"
     inkscape:window-maximized="1"
     showguides="true" />
  <metadata
     id="metadata5">
    <rdf:RDF>
      <cc:Work
         rdf:about="">
        <dc:format>image/svg+xml</dc:format>
        <dc:type
           rdf:resource="http://purl.org/dc/dcmitype/StillImage" />
        <dc:title></dc:title>
      </cc:Work>
    </rdf:RDF>
  </metadata>
  <g
     inkscape:label="Layer 1"
     inkscape:groupmode="layer"
     id="layer1"
     transform="translate(-36.749557,-26.656871)">
    <circle
       style="fill:#7651c2;fill-opacity:1;stroke-width:0.26458332"
       id="path4536"
       cx="48.308964"
       cy="38.216278"
       r="11.559407" />
    <path
       style="fill:#ffffff;fill-opacity:1;stroke:#ffffff;stroke-width:0.26458332px;stroke-linecap:butt;stroke-linejoin:miter;stroke-opacity:1"
       d="m 49.152643,29.024708 c 0,0 1.784474,0.546276 1.889522,0.93872 0.292761,1.093707 -2.555714,0.418384 -5.390092,0.885434 -1.182578,0.194865 -1.464104,0.405872 -1.905874,1.075791 -0.813268,1.233274 -0.583242,2.496524 0.445848,3.717254 1.065401,1.263802 4.542471,1.989076 4.542471,1.989076 0,0 -3.577639,0.4035 -5.181839,1.274969 -0.82858,0.450119 -1.855159,0.923267 -1.775984,2.241667 0.06812,1.134175 0.782006,1.849417 1.77866,2.303147 2.714305,1.235696 9.676612,0.300573 9.676612,0.300573 0,0 -2.479277,1.213721 -3.446965,1.723433 -1.403698,0.739372 -3.274143,1.312439 -3.274143,1.312439 0,0 0.913479,0.13457 2.612735,-0.383193 1.019542,-0.310655 2.228329,-0.90244 3.180027,-1.480463 1.023277,-0.621497 3.37228,-2.140997 2.280455,-2.245973 -1.091827,-0.104983 -8.908691,0.269875 -9.600038,-1.459045 -0.300297,-2.730931 6.05002,-3.635806 6.05002,-3.635806 0,0 -4.911578,-1.840604 -5.909909,-2.621108 -1.016561,-0.794756 -0.9239,-2.907805 0.595736,-3.109258 2.497479,-0.331085 6.462599,-0.190164 7.129963,-1.205668 0.713971,-1.086425 -2.230898,-1.448545 -2.895397,-1.621989 -0.664499,-0.173444 -0.801808,0 -0.801808,0 z"
       id="path4538"
       inkscape:connector-curvature="0"
       sodipodi:nodetypes="csssscssscscsscccssszc" />
    <path
       style="fill:#008080;fill-opacity:1;stroke:none;stroke-width:0.26458332;stroke-opacity:1"
       id="path4861"
       sodipodi:type="arc"
       sodipodi:cx="48.25885"
       sodipodi:cy="38.199574"
       sodipodi:rx="11.475885"
       sodipodi:ry="11.475885"
       sodipodi:start="5.2166076"
       sodipodi:end="0.87732176"
       d="m 53.803119,28.151836 a 11.475885,11.475885 0 0 1 5.880275,8.963418 11.475885,11.475885 0 0 1 -4.089008,9.909616"
       sodipodi:open="true" />
    <path
       style="fill:#008080;fill-opacity:1;stroke:none;stroke-width:0.26458332;stroke-opacity:1"
       id="path4861-3"
       sodipodi:type="arc"
       sodipodi:cx="48.37318"
       sodipodi:cy="38.204556"
       sodipodi:rx="11.475885"
       sodipodi:ry="11.475885"
       sodipodi:start="2.1471605"
       sodipodi:end="3.9927533"
       d="m 42.119063,47.826507 a 11.475885,11.475885 0 0 1 -5.192335,-8.800571 11.475885,11.475885 0 0 1 3.882573,-9.451773"
       sodipodi:open="true" />
  </g>
</svg>
